<svg width="400" height="400" viewBox="0 0 400 400" fill="none" xmlns="http://www.w3.org/2000/svg">
<mask id="path-1-inside-1_145_4507" fill="white">
<path d="M0 200C0 89.5431 89.5431 0 200 0H392.157C396.489 0 400 3.51149 400 7.84314V200C400 310.457 310.457 400 200 400V400C89.5431 400 0 310.457 0 200V200Z"/>
</mask>
<path d="M0 200C0 89.5431 89.5431 0 200 0H392.157C396.489 0 400 3.51149 400 7.84314V200C400 310.457 310.457 400 200 400V400C89.5431 400 0 310.457 0 200V200Z" stroke="#092C4C" stroke-width="60" mask="url(#path-1-inside-1_145_4507)"/>
<path d="M175 176.667C175 162.859 186.193 151.667 200 151.667V151.667C213.807 151.667 225 162.859 225 176.667V265.555C225 293.17 202.614 315.555 175 315.555V315.555V176.667Z" fill="#092C4C"/>
<ellipse cx="200" cy="110" rx="25" ry="25" fill="#FE9F43"/>
</svg>
